<svg width="34" height="32" viewBox="0 0 34 32" fill="none" xmlns="http://www.w3.org/2000/svg">
<path d="M24.6558 26.845C25.3852 26.845 25.9766 27.422 25.9766 28.1336V30.7107C25.9766 31.4223 25.3852 31.9993 24.6558 31.9993H22.0142C21.2846 31.9993 20.6934 31.4223 20.6934 30.7107V28.1336C20.6934 27.422 21.2846 26.845 22.0142 26.845H24.6558Z" fill="#76C03D"></path>
<path d="M8.80517 6.22761C8.07571 6.22761 7.48437 5.65068 7.48437 4.93901V2.36184C7.48437 1.65016 8.07571 1.07324 8.80517 1.07324H11.4468C12.1763 1.07324 12.7676 1.65016 12.7676 2.36184V4.93901C12.7676 5.65068 12.1763 6.22761 11.4468 6.22761H8.80517Z" fill="#76C03D"></path>
<path d="M26.3624 18.847C26.1148 18.6053 25.9756 18.2776 25.9756 17.9358V15.1375C25.9756 14.7958 26.1148 14.468 26.3624 14.2264L26.6894 13.9074C26.9372 13.6657 27.273 13.53 27.6234 13.53H32.1394C32.8688 13.53 33.4602 12.953 33.4602 12.2414V7.94608C33.4602 7.23439 32.8688 6.65747 32.1394 6.65747H27.6234C27.273 6.65747 26.9372 6.52171 26.6894 6.28007L26.3624 5.96106C26.1148 5.7194 25.9756 5.39166 25.9756 5.0499V2.36217C25.9756 1.6505 25.3842 1.07358 24.6548 1.07358H22.0132C21.2838 1.07358 20.6924 1.6505 20.6924 2.36217V5.0499C20.6924 5.39166 20.5532 5.71942 20.3056 5.96106L19.9786 6.28007C19.7309 6.52172 19.3949 6.65747 19.0446 6.65747H14.5286C13.7992 6.65747 13.2078 7.23441 13.2078 7.94608V12.2414C13.2078 12.953 13.7992 13.53 14.5286 13.53H18.9313C19.6608 13.53 20.2522 12.953 20.2522 12.2414V7.83552C20.2522 7.49376 20.3912 7.16602 20.639 6.92436L20.966 6.60537C21.2136 6.36372 21.5496 6.22795 21.8998 6.22795H24.7682C25.1184 6.22795 25.4544 6.36372 25.702 6.60537L26.029 6.92436C26.2768 7.16602 26.4158 7.49376 26.4158 7.83552V12.3519C26.4158 12.6937 26.2768 13.0214 26.029 13.2631L25.702 13.5821C25.4544 13.8237 25.1184 13.9595 24.7682 13.9595H22.0132C21.2838 13.9595 20.6924 14.5364 20.6924 15.2481V17.8253C20.6924 18.5369 21.2838 19.1139 22.0132 19.1139H24.7682C25.1184 19.1139 25.4544 19.2496 25.702 19.4913L26.029 19.8103C26.2768 20.052 26.4158 20.3796 26.4158 20.7215V25.1273C26.4158 25.8389 27.0072 26.4159 27.7366 26.4159H32.1394C32.8688 26.4159 33.4602 25.8389 33.4602 25.1273V20.8319C33.4602 20.1203 32.8688 19.5433 32.1394 19.5433H27.6234C27.273 19.5433 26.9372 19.4076 26.6894 19.166L26.3624 18.847Z" fill="#76C03D"></path>
<path d="M12.4942 26.468C12.2465 26.7096 11.9106 26.8454 11.5603 26.8454H8.69206C8.34176 26.8454 8.00582 26.7096 7.75812 26.468L7.43116 26.149C7.18346 25.9072 7.0443 25.5796 7.0443 25.2378V20.7213C7.0443 20.3794 7.18352 20.0516 7.43134 19.8101L7.75814 19.4912C8.00582 19.2497 8.3417 19.114 8.69192 19.114H11.447C12.1764 19.114 12.7678 18.5371 12.7678 17.8254V15.2482C12.7678 14.5366 12.1764 13.9597 11.447 13.9597H8.69214C8.3418 13.9597 8.0058 13.8239 7.7581 13.5821L7.43106 13.263C7.18342 13.0214 7.0443 12.6936 7.0443 12.3519V7.94602C7.0443 7.23435 6.45296 6.65741 5.7235 6.65741H1.32081C0.591344 6.65741 0 7.23435 0 7.94602L0 12.2413C0 12.953 0.591344 13.5299 1.32081 13.5299H5.8368C6.1871 13.5299 6.52306 13.6657 6.77076 13.9073L7.09772 14.2263C7.34542 14.468 7.48456 14.7957 7.48456 15.1375V17.9356C7.48456 18.2773 7.34544 18.605 7.0978 18.8467L6.77076 19.1658C6.52306 19.4075 6.18706 19.5433 5.83672 19.5433H1.32081C0.591344 19.5433 0 20.1203 0 20.8319V25.1273C0 25.8389 0.591344 26.4159 1.32081 26.4159H5.8368C6.1871 26.4159 6.52306 26.5515 6.77076 26.7933L7.09772 27.1123C7.34542 27.3539 7.48456 27.6817 7.48456 28.0233V30.7111C7.48456 31.4227 8.07592 31.9997 8.80538 31.9997H11.447C12.1764 31.9997 12.7678 31.4227 12.7678 30.7111V28.0233C12.7678 27.6817 12.9069 27.3539 13.1546 27.1123L13.4816 26.7933C13.7293 26.5515 14.0653 26.4159 14.4156 26.4159H18.9316C19.661 26.4159 20.2524 25.8389 20.2524 25.1273V20.8319C20.2524 20.1203 19.661 19.5433 18.9316 19.5433H14.5289C13.7994 19.5433 13.2081 20.1203 13.2081 20.8319V25.2378C13.2081 25.5796 13.0689 25.9072 12.8212 26.149L12.4942 26.468Z" fill="#76C03D"></path>
</svg>